<?xml version="1.0" encoding="UTF-8"?>
<svg width="35px" height="35px" viewBox="0 0 35 35" version="1.1" xmlns="http://www.w3.org/2000/svg" xmlns:xlink="http://www.w3.org/1999/xlink">
    <!-- Generator: Sketch 53.1 (72631) - https://sketchapp.com -->
    <title>picto-instagram</title>
    <desc>Created with Sketch.</desc>
    <g id="Symbols" stroke="none" stroke-width="1" fill="none" fill-rule="evenodd">
        <g id="Footer-Page1" transform="translate(-1265.000000, 1.000000)" fill-rule="nonzero">
            <g id="Footer">
                <g id="Social-networks" transform="translate(934.000000, 0.000000)">
                    <g id="picto-instagram" transform="translate(332.000000, 0.000000)">
                        <circle id="Oval" stroke="#495867" stroke-width="2" cx="16.5" cy="16.5" r="16.5"></circle>
                        <g id="instagram-logo" transform="translate(9.777778, 9.777778)" fill="#495867">
                            <path d="M13.2,0 L1.46666667,0 C0.66,0 0,0.66 0,1.46666667 L0,13.2 C0,14.0066667 0.66,14.6666667 1.46666667,14.6666667 L13.2,14.6666667 C14.0066667,14.6666667 14.6666667,14.0066667 14.6666667,13.2 L14.6666667,1.46666667 C14.6666667,0.66 14.0066667,0 13.2,0 Z M7.33333333,4.4 C8.94666667,4.4 10.2666667,5.72 10.2666667,7.33333333 C10.2666667,8.94666667 8.94666667,10.2666667 7.33333333,10.2666667 C5.72,10.2666667 4.4,8.94666667 4.4,7.33333333 C4.4,5.72 5.72,4.4 7.33333333,4.4 Z M1.83333333,13.2 C1.61333333,13.2 1.46666667,13.0533333 1.46666667,12.8333333 L1.46666667,6.6 L3.00666667,6.6 C2.93333333,6.82 2.93333333,7.11333333 2.93333333,7.33333333 C2.93333333,9.75333333 4.91333333,11.7333333 7.33333333,11.7333333 C9.75333333,11.7333333 11.7333333,9.75333333 11.7333333,7.33333333 C11.7333333,7.11333333 11.7333333,6.82 11.66,6.6 L13.2,6.6 L13.2,12.8333333 C13.2,13.0533333 13.0533333,13.2 12.8333333,13.2 L1.83333333,13.2 Z M13.2,3.3 C13.2,3.52 13.0533333,3.66666667 12.8333333,3.66666667 L11.3666667,3.66666667 C11.1466667,3.66666667 11,3.52 11,3.3 L11,1.83333333 C11,1.61333333 11.1466667,1.46666667 11.3666667,1.46666667 L12.8333333,1.46666667 C13.0533333,1.46666667 13.2,1.61333333 13.2,1.83333333 L13.2,3.3 Z" id="Shape"></path>
                        </g>
                    </g>
                </g>
            </g>
        </g>
    </g>
</svg>