<?xml version="1.0" encoding="UTF-8"?>
<svg width="35px" height="35px" viewBox="0 0 35 35" version="1.1" xmlns="http://www.w3.org/2000/svg" xmlns:xlink="http://www.w3.org/1999/xlink">
    <!-- Generator: Sketch 53.1 (72631) - https://sketchapp.com -->
    <title>picto-linkedin</title>
    <desc>Created with Sketch.</desc>
    <g id="Symbols" stroke="none" stroke-width="1" fill="none" fill-rule="evenodd">
        <g id="Footer-Page1" transform="translate(-933.000000, 1.000000)" fill-rule="nonzero">
            <g id="Footer">
                <g id="Social-networks" transform="translate(934.000000, 0.000000)">
                    <g id="picto-linkedin">
                        <circle id="Oval" stroke="#495867" stroke-width="2" cx="16.5" cy="16.5" r="16.5"></circle>
                        <g id="linkedin-logo" transform="translate(9.777778, 8.555556)" fill="#495867">
                            <path d="M13.4444444,8.79743848 L13.4444444,14.6666667 L10.395947,14.6666667 L10.395947,9.190524 C10.395947,7.81487232 9.95501468,6.87604385 8.85155964,6.87604385 C8.00921165,6.87604385 7.50792978,7.50874544 7.2873975,8.12077775 C7.20697547,8.3395769 7.18627474,8.64411668 7.18627474,8.9503912 L7.18627474,14.6666667 L4.13675214,14.6666667 C4.13675214,14.6666667 4.17782293,5.39187841 4.13675214,4.43094118 L7.18597712,4.43094118 L7.18597712,5.8818143 C7.17979336,5.89266568 7.17175777,5.90436597 7.16593775,5.91488516 L7.18597712,5.91488516 L7.18597712,5.8818143 C7.59109647,5.18537011 8.31459711,4.19047619 9.93401633,4.19047619 C11.9403673,4.19043928 13.4444444,5.65341869 13.4444444,8.79743848 Z M1.56073325,0 C0.617169012,0 0,0.678544972 0,1.57085473 C0,2.4437194 0.599313431,3.14285714 1.52412482,3.14285714 L1.54254867,3.14285714 C2.50438721,3.14285714 3.1025641,2.44385056 3.1025641,1.57085473 C3.08443934,0.678544972 2.50438721,0 1.56073325,0 Z M-4.6176396e-12,14.6666667 L3.1025641,14.6666667 L3.1025641,4.42530027 L-4.6176396e-12,4.42530027 L-4.6176396e-12,14.6666667 Z" id="LinkedIn"></path>
                        </g>
                    </g>
                </g>
            </g>
        </g>
    </g>
</svg>