<svg width="464" height="424" viewBox="0 0 464 424" fill="none" xmlns="http://www.w3.org/2000/svg">
<rect width="464" height="424" fill="#FF8EC4"/>
<mask id="mask0_605_879" style="mask-type:alpha" maskUnits="userSpaceOnUse" x="159" y="126" width="147" height="147">
<rect x="159" y="126" width="147" height="147" fill="#D9D9D9"/>
</mask>
<g mask="url(#mask0_605_879)">
<path d="M216.575 245.744C214.737 242.375 213.131 238.878 211.755 235.252C210.374 231.63 209.225 227.879 208.306 224H190.237C193.198 229.104 196.897 233.545 201.336 237.322C205.779 241.099 210.858 243.906 216.575 245.744ZM185.031 211.75H205.856C205.55 209.708 205.319 207.691 205.164 205.699C205.013 203.71 204.938 201.644 204.938 199.5C204.938 197.356 205.013 195.29 205.164 193.301C205.319 191.309 205.55 189.292 205.856 187.25H185.031C184.521 189.292 184.137 191.309 183.88 193.301C183.627 195.29 183.5 197.356 183.5 199.5C183.5 201.644 183.627 203.71 183.88 205.699C184.137 207.691 184.521 209.708 185.031 211.75ZM190.237 175H208.306C209.225 171.121 210.374 167.368 211.755 163.742C213.131 160.12 214.737 156.625 216.575 153.256C210.858 155.094 205.779 157.901 201.336 161.678C196.897 165.455 193.198 169.896 190.237 175ZM220.863 175H244.137C242.912 170.508 241.33 166.272 239.391 162.291C237.451 158.309 235.154 154.481 232.5 150.806C229.846 154.481 227.549 158.309 225.609 162.291C223.67 166.272 222.088 170.508 220.863 175ZM256.694 175H274.762C271.802 169.896 268.101 165.455 263.658 161.678C259.219 157.901 254.142 155.094 248.425 153.256C250.263 156.625 251.871 160.12 253.251 163.742C254.628 167.368 255.775 171.121 256.694 175ZM232.5 260.75C224.129 260.75 216.218 259.141 208.766 255.923C201.314 252.71 194.807 248.32 189.245 242.755C183.68 237.193 179.29 230.686 176.077 223.234C172.859 215.782 171.25 207.871 171.25 199.5C171.25 191.027 172.859 183.091 176.077 175.692C179.29 168.289 183.68 161.807 189.245 156.245C194.807 150.68 201.314 146.288 208.766 143.07C216.218 139.857 224.129 138.25 232.5 138.25C240.973 138.25 248.909 139.857 256.308 143.07C263.711 146.288 270.193 150.68 275.755 156.245C281.32 161.807 285.71 168.289 288.923 175.692C292.141 183.091 293.75 191.027 293.75 199.5C293.75 200.521 293.726 201.542 293.677 202.562C293.623 203.583 293.546 204.604 293.444 205.625H281.041C281.245 204.604 281.373 203.608 281.427 202.636C281.476 201.668 281.5 200.623 281.5 199.5C281.5 197.356 281.373 195.29 281.12 193.301C280.863 191.309 280.479 189.292 279.969 187.25H259.144C259.45 189.292 259.679 191.309 259.83 193.301C259.985 195.29 260.062 197.356 260.062 199.5V202.636C260.062 203.608 260.011 204.604 259.909 205.625H247.659C247.761 204.604 247.812 203.608 247.812 202.636V199.5C247.812 197.356 247.737 195.29 247.586 193.301C247.431 191.309 247.2 189.292 246.894 187.25H218.106C217.8 189.292 217.571 191.309 217.42 193.301C217.265 195.29 217.188 197.356 217.188 199.5C217.188 201.644 217.265 203.71 217.42 205.699C217.571 207.691 217.8 209.708 218.106 211.75H238.625V224H220.863C222.088 228.492 223.67 232.728 225.609 236.709C227.549 240.691 229.846 244.519 232.5 248.194C233.623 246.56 234.695 244.903 235.716 243.22C236.736 241.534 237.706 239.823 238.625 238.087V260.444C237.604 260.546 236.608 260.623 235.636 260.677C234.668 260.726 233.623 260.75 232.5 260.75ZM281.194 256.922L263.125 238.853V252.481H250.875V217.875H285.481V230.125H271.7L289.769 248.194L281.194 256.922Z" fill="#1C1B1F"/>
</g>
</svg>
