<svg width="464" height="424" viewBox="0 0 464 424" fill="none" xmlns="http://www.w3.org/2000/svg">
<rect width="464" height="424" fill="#FFBB0E"/>
<mask id="mask0_605_879" style="mask-type:alpha" maskUnits="userSpaceOnUse" x="150" y="126" width="165" height="147">
<rect x="150" y="126" width="165" height="147" fill="#D9D9D9"/>
</mask>
<g mask="url(#mask0_605_879)">
<path d="M208.438 260.75V251.563L222.188 242.375V208.688L163.75 224V211.75L222.188 181.125V147.438C222.188 144.886 223.191 142.717 225.199 140.933C227.202 139.144 229.635 138.25 232.5 138.25C235.365 138.25 237.798 139.144 239.801 140.933C241.809 142.717 242.813 144.886 242.813 147.438V181.125L301.25 211.75V224L242.813 208.688V242.375L256.563 251.563V260.75L232.5 254.625L208.438 260.75Z" fill="white"/>
</g>
</svg>
