<svg width="205" height="261" viewBox="0 0 205 261" fill="none" xmlns="http://www.w3.org/2000/svg">
<ellipse cx="2.32955" cy="2.33036" rx="2.32955" ry="2.33036" fill="#8e9aaf"/>
<ellipse cx="30.2841" cy="2.33036" rx="2.32955" ry="2.33036" fill="#8e9aaf"/>
<ellipse cx="58.2386" cy="2.33036" rx="2.32955" ry="2.33036" fill="#8e9aaf"/>
<ellipse cx="86.1932" cy="2.33036" rx="2.32955" ry="2.33036" fill="#8e9aaf"/>
<ellipse cx="114.148" cy="2.33036" rx="2.32955" ry="2.33036" fill="#8e9aaf"/>
<ellipse cx="142.102" cy="2.33036" rx="2.32955" ry="2.33036" fill="#8e9aaf"/>
<ellipse cx="170.057" cy="2.33036" rx="2.32955" ry="2.33036" fill="#8e9aaf"/>
<ellipse cx="198.011" cy="2.33036" rx="2.32955" ry="2.33036" fill="#8e9aaf"/>
<ellipse cx="2.32955" cy="30.2947" rx="2.32955" ry="2.33036" fill="#8e9aaf"/>
<ellipse cx="30.2841" cy="30.2947" rx="2.32955" ry="2.33036" fill="#8e9aaf"/>
<ellipse cx="58.2386" cy="30.2947" rx="2.32955" ry="2.33036" fill="#8e9aaf"/>
<ellipse cx="86.1932" cy="30.2947" rx="2.32955" ry="2.33036" fill="#8e9aaf"/>
<ellipse cx="114.148" cy="30.2947" rx="2.32955" ry="2.33036" fill="#8e9aaf"/>
<ellipse cx="142.102" cy="30.2947" rx="2.32955" ry="2.33036" fill="#8e9aaf"/>
<ellipse cx="170.057" cy="30.2947" rx="2.32955" ry="2.33036" fill="#8e9aaf"/>
<ellipse cx="198.011" cy="30.2947" rx="2.32955" ry="2.33036" fill="#8e9aaf"/>
<ellipse cx="2.32955" cy="58.2589" rx="2.32955" ry="2.33036" fill="#8e9aaf"/>
<ellipse cx="30.2841" cy="58.2589" rx="2.32955" ry="2.33036" fill="#8e9aaf"/>
<ellipse cx="58.2386" cy="58.2589" rx="2.32955" ry="2.33036" fill="#8e9aaf"/>
<ellipse cx="86.1932" cy="58.2589" rx="2.32955" ry="2.33036" fill="#8e9aaf"/>
<ellipse cx="114.148" cy="58.2589" rx="2.32955" ry="2.33036" fill="#8e9aaf"/>
<ellipse cx="142.102" cy="58.2589" rx="2.32955" ry="2.33036" fill="#8e9aaf"/>
<ellipse cx="170.057" cy="58.2589" rx="2.32955" ry="2.33036" fill="#8e9aaf"/>
<ellipse cx="198.011" cy="58.2589" rx="2.32955" ry="2.33036" fill="#8e9aaf"/>
<ellipse cx="2.32955" cy="86.2232" rx="2.32955" ry="2.33036" fill="#8e9aaf"/>
<ellipse cx="30.2841" cy="86.2232" rx="2.32955" ry="2.33036" fill="#8e9aaf"/>
<ellipse cx="58.2386" cy="86.2232" rx="2.32955" ry="2.33036" fill="#8e9aaf"/>
<ellipse cx="86.1932" cy="86.2232" rx="2.32955" ry="2.33036" fill="#8e9aaf"/>
<ellipse cx="114.148" cy="86.2232" rx="2.32955" ry="2.33036" fill="#8e9aaf"/>
<ellipse cx="142.102" cy="86.2232" rx="2.32955" ry="2.33036" fill="#8e9aaf"/>
<ellipse cx="170.057" cy="86.2232" rx="2.32955" ry="2.33036" fill="#8e9aaf"/>
<ellipse cx="198.011" cy="86.2232" rx="2.32955" ry="2.33036" fill="#8e9aaf"/>
<ellipse cx="2.32955" cy="114.188" rx="2.32955" ry="2.33036" fill="#8e9aaf"/>
<ellipse cx="30.2841" cy="114.188" rx="2.32955" ry="2.33036" fill="#8e9aaf"/>
<ellipse cx="58.2386" cy="114.188" rx="2.32955" ry="2.33036" fill="#8e9aaf"/>
<ellipse cx="86.1932" cy="114.188" rx="2.32955" ry="2.33036" fill="#8e9aaf"/>
<ellipse cx="114.148" cy="114.188" rx="2.32955" ry="2.33036" fill="#8e9aaf"/>
<ellipse cx="142.102" cy="114.188" rx="2.32955" ry="2.33036" fill="#8e9aaf"/>
<ellipse cx="170.057" cy="114.188" rx="2.32955" ry="2.33036" fill="#8e9aaf"/>
<ellipse cx="198.011" cy="114.188" rx="2.32955" ry="2.33036" fill="#8e9aaf"/>
<ellipse cx="2.32955" cy="142.152" rx="2.32955" ry="2.33036" fill="#8e9aaf"/>
<ellipse cx="30.2841" cy="142.152" rx="2.32955" ry="2.33036" fill="#8e9aaf"/>
<ellipse cx="58.2386" cy="142.152" rx="2.32955" ry="2.33036" fill="#8e9aaf"/>
<ellipse cx="86.1932" cy="142.152" rx="2.32955" ry="2.33036" fill="#8e9aaf"/>
<ellipse cx="114.148" cy="142.152" rx="2.32955" ry="2.33036" fill="#8e9aaf"/>
<ellipse cx="142.102" cy="142.152" rx="2.32955" ry="2.33036" fill="#8e9aaf"/>
<ellipse cx="170.057" cy="142.152" rx="2.32955" ry="2.33036" fill="#8e9aaf"/>
<ellipse cx="198.011" cy="142.152" rx="2.32955" ry="2.33036" fill="#8e9aaf"/>
<ellipse cx="2.32955" cy="170.116" rx="2.32955" ry="2.33036" fill="#8e9aaf"/>
<ellipse cx="30.2841" cy="170.116" rx="2.32955" ry="2.33036" fill="#8e9aaf"/>
<ellipse cx="58.2386" cy="170.116" rx="2.32955" ry="2.33036" fill="#8e9aaf"/>
<ellipse cx="86.1932" cy="170.116" rx="2.32955" ry="2.33036" fill="#8e9aaf"/>
<ellipse cx="114.148" cy="170.116" rx="2.32955" ry="2.33036" fill="#8e9aaf"/>
<ellipse cx="142.102" cy="170.116" rx="2.32955" ry="2.33036" fill="#8e9aaf"/>
<ellipse cx="170.057" cy="170.116" rx="2.32955" ry="2.33036" fill="#8e9aaf"/>
<ellipse cx="198.011" cy="170.116" rx="2.32955" ry="2.33036" fill="#8e9aaf"/>
<ellipse cx="2.32955" cy="198.08" rx="2.32955" ry="2.33036" fill="#8e9aaf"/>
<ellipse cx="30.2841" cy="198.08" rx="2.32955" ry="2.33036" fill="#8e9aaf"/>
<ellipse cx="58.2386" cy="198.08" rx="2.32955" ry="2.33036" fill="#8e9aaf"/>
<ellipse cx="86.1932" cy="198.08" rx="2.32955" ry="2.33036" fill="#8e9aaf"/>
<ellipse cx="114.148" cy="198.08" rx="2.32955" ry="2.33036" fill="#8e9aaf"/>
<ellipse cx="142.102" cy="198.08" rx="2.32955" ry="2.33036" fill="#8e9aaf"/>
<ellipse cx="170.057" cy="198.08" rx="2.32955" ry="2.33036" fill="#8e9aaf"/>
<ellipse cx="198.011" cy="198.08" rx="2.32955" ry="2.33036" fill="#8e9aaf"/>
<ellipse cx="2.32955" cy="226.045" rx="2.32955" ry="2.33036" fill="#8e9aaf"/>
<ellipse cx="30.2841" cy="226.045" rx="2.32955" ry="2.33036" fill="#8e9aaf"/>
<ellipse cx="58.2386" cy="226.045" rx="2.32955" ry="2.33036" fill="#8e9aaf"/>
<ellipse cx="86.1932" cy="226.045" rx="2.32955" ry="2.33036" fill="#8e9aaf"/>
<ellipse cx="114.148" cy="226.045" rx="2.32955" ry="2.33036" fill="#8e9aaf"/>
<ellipse cx="142.102" cy="226.045" rx="2.32955" ry="2.33036" fill="#8e9aaf"/>
<ellipse cx="170.057" cy="226.045" rx="2.32955" ry="2.33036" fill="#8e9aaf"/>
<ellipse cx="198.011" cy="226.045" rx="2.32955" ry="2.33036" fill="#8e9aaf"/>
<ellipse cx="2.32955" cy="254.009" rx="2.32955" ry="2.33036" fill="#8e9aaf"/>
<ellipse cx="30.2841" cy="254.009" rx="2.32955" ry="2.33036" fill="#8e9aaf"/>
<ellipse cx="58.2386" cy="254.009" rx="2.32955" ry="2.33036" fill="#8e9aaf"/>
<ellipse cx="86.1932" cy="254.009" rx="2.32955" ry="2.33036" fill="#8e9aaf"/>
<ellipse cx="114.148" cy="254.009" rx="2.32955" ry="2.33036" fill="#8e9aaf"/>
<ellipse cx="142.102" cy="254.009" rx="2.32955" ry="2.33036" fill="#8e9aaf"/>
<ellipse cx="170.057" cy="254.009" rx="2.32955" ry="2.33036" fill="#8e9aaf"/>
<ellipse cx="198.011" cy="254.009" rx="2.32955" ry="2.33036" fill="#8e9aaf"/>
</svg>
