
<svg version="1.0" xmlns="http://www.w3.org/2000/svg"
 width="320.000000pt" height="320.000000pt" viewBox="0 0 3120.000000 3120.000000"
 preserveAspectRatio="xMidYMid meet">

<g transform="translate(0.000000,3120.000000) scale(0.100000,-0.100000)"
fill="#000000" stroke="none">
<path d="M11112 31183 c2 -10 10 -17 19 -16 12 2 14 -9 12 -65 -4 -90 -7 -96
-43 -89 -41 9 -46 -7 -11 -35 15 -13 37 -36 47 -52 16 -26 16 -29 1 -37 -9 -6
-22 -19 -28 -30 -13 -25 12 -69 40 -69 10 0 24 -7 31 -15 17 -21 59 -19 98 5
50 31 94 26 181 -21 148 -81 176 -97 216 -119 22 -12 78 -43 125 -68 78 -41
254 -139 290 -161 17 -11 432 -237 500 -273 284 -150 361 -208 384 -288 10
-36 18 -46 38 -48 14 -2 31 5 42 17 15 16 22 18 42 9 14 -6 23 -16 21 -22 -2
-6 -38 -22 -80 -37 -41 -15 -89 -36 -105 -48 -17 -11 -36 -21 -44 -21 -13 0
-95 -76 -121 -114 -14 -19 -20 -22 -217 -91 -69 -24 -192 -69 -275 -99 -136
-50 -151 -54 -166 -40 -26 23 -51 14 -79 -30 l-25 -38 -57 6 c-66 8 -101 -5
-140 -52 -30 -36 -181 -84 -273 -87 -33 -1 -84 -9 -112 -18 -219 -69 -341 -88
-624 -94 -130 -3 -252 -3 -271 1 -23 4 -62 29 -111 71 -93 79 -113 68 -27 -15
34 -33 59 -60 54 -60 -9 0 -181 64 -229 85 -73 33 -85 35 -91 20 -11 -29 16
-49 117 -87 57 -22 108 -44 114 -49 8 -8 -34 -14 -77 -10 -26 3 -22 -14 8 -38
23 -18 54 -63 54 -77 0 -2 -9 -4 -20 -4 -12 0 -25 -10 -32 -25 -10 -21 -8 -32
12 -68 34 -62 80 -108 102 -101 14 4 23 -7 43 -50 14 -30 25 -69 25 -86 0 -43
26 -89 58 -101 15 -6 46 -8 70 -4 34 5 42 3 42 -9 0 -13 3 -13 19 3 13 13 40
22 78 26 32 3 68 10 81 16 13 5 35 9 50 9 15 0 56 7 92 15 36 8 106 22 155 30
50 8 137 24 195 36 58 12 147 23 199 24 166 5 263 32 274 75 3 11 18 24 34 30
15 5 40 16 55 24 24 13 28 13 39 0 19 -23 66 -45 83 -38 9 3 18 0 20 -7 3 -8
7 -173 10 -368 3 -251 1 -359 -7 -371 -8 -14 -7 -28 3 -59 10 -31 12 -81 6
-213 -3 -95 -10 -175 -14 -178 -4 -3 -8 -57 -9 -120 -1 -63 -8 -223 -16 -355
-16 -291 -14 -415 9 -605 27 -218 23 -423 -10 -458 -19 -22 -20 -34 -4 -50 7
-7 12 -64 14 -159 2 -81 7 -233 10 -338 11 -285 8 -463 -8 -482 -5 -7 -12 -76
-14 -155 -2 -78 -6 -154 -9 -168 -2 -14 -11 -110 -20 -215 -45 -576 -38 -510
-55 -529 -10 -13 -10 -22 -2 -41 8 -18 9 -53 1 -127 -5 -57 -12 -132 -14 -168
-2 -36 -7 -85 -9 -110 -3 -25 -8 -83 -11 -130 -6 -79 -18 -216 -31 -335 -10
-88 -13 -146 -14 -305 -1 -147 7 -210 29 -210 10 0 51 -74 51 -92 0 -6 10 -33
22 -60 21 -47 23 -48 65 -48 36 0 49 6 76 33 53 53 72 87 100 182 15 50 32
104 37 120 68 216 64 373 -11 436 -24 20 -30 30 -25 47 4 13 16 22 27 22 17 0
14 6 -16 35 -19 20 -35 43 -35 53 0 9 -7 159 -14 332 -8 173 -17 389 -21 480
-3 91 -10 281 -16 422 -10 205 -9 263 1 287 10 26 10 37 -3 70 -12 29 -17 80
-18 193 -1 137 18 555 26 569 2 3 5 74 6 159 1 108 6 165 16 189 13 31 13 39
-1 69 -9 18 -19 66 -22 105 -3 40 -9 99 -14 132 -11 77 7 350 26 392 18 39 18
54 0 79 -19 25 -23 558 -4 610 9 27 9 36 -5 57 -14 22 -16 73 -13 460 2 338 5
439 15 451 9 11 11 27 6 48 -10 45 -6 231 6 353 10 96 12 101 45 128 18 16 37
42 42 59 7 29 14 34 102 61 52 16 104 33 115 37 20 8 35 13 220 64 50 14 119
30 155 36 106 18 108 19 113 38 4 16 5 16 6 -1 1 -14 6 -17 21 -12 16 5 20 2
20 -19 0 -32 20 -44 27 -16 4 15 10 19 22 14 21 -9 42 -9 64 1 13 6 17 2 17
-17 0 -30 9 -41 24 -29 18 14 60 21 75 12 9 -6 10 -11 2 -15 -6 -4 -11 -11
-11 -17 0 -16 22 -10 56 16 18 14 37 25 43 25 6 0 11 7 11 15 0 15 20 22 20 8
0 -5 4 -14 9 -22 8 -12 11 -12 24 1 9 9 43 18 81 21 36 3 74 10 83 15 10 5 45
12 78 15 33 3 68 9 78 12 15 6 17 0 17 -57 0 -43 6 -76 19 -101 16 -31 19 -54
16 -125 -2 -48 -6 -188 -9 -312 -4 -124 -8 -263 -11 -310 -3 -47 -10 -197 -15
-335 -10 -237 -13 -306 -25 -505 -2 -47 -7 -137 -10 -200 -4 -63 -8 -122 -10
-130 -2 -8 -11 -73 -20 -145 -8 -71 -22 -161 -30 -200 -65 -324 -121 -645
-136 -775 -6 -58 -18 -148 -26 -200 -7 -52 -18 -140 -24 -195 -6 -55 -17 -134
-26 -177 -22 -107 -14 -329 16 -412 12 -33 21 -70 21 -83 0 -13 7 -38 16 -54
37 -73 40 -340 14 -1549 -5 -245 -9 -560 -10 -700 0 -206 -3 -261 -15 -284 -8
-15 -15 -35 -15 -43 0 -8 -8 -28 -17 -46 -9 -18 -16 -38 -14 -45 1 -8 -3 -20
-9 -27 -6 -7 -13 -33 -14 -57 -5 -63 -17 -106 -32 -119 -7 -6 -10 -17 -8 -24
3 -8 3 -19 -1 -25 -4 -6 -9 -34 -11 -62 -1 -27 -9 -57 -16 -65 -6 -8 -13 -33
-13 -55 -1 -30 -7 -45 -25 -58 -22 -17 -22 -18 -4 -29 13 -9 15 -14 7 -17 -7
-3 -13 -18 -13 -34 0 -16 -6 -30 -12 -33 -10 -3 -10 -7 -2 -18 13 -17 16 -76
4 -104 -15 -37 -32 -109 -40 -179 -5 -38 -12 -76 -15 -85 -4 -9 -8 -47 -10
-85 -2 -38 -9 -74 -14 -79 -6 -6 -11 -42 -11 -80 0 -37 -5 -78 -12 -90 -6 -12
-13 -47 -15 -77 -5 -99 -14 -185 -21 -200 -3 -8 -7 -40 -8 -70 -1 -70 -14
-141 -27 -158 -7 -9 -7 -16 1 -24 19 -19 15 -105 -4 -116 -15 -8 -15 -11 1
-36 13 -19 15 -35 10 -58 -4 -18 -9 -88 -12 -155 -2 -68 -7 -123 -10 -123 -2
0 -17 7 -31 16 -52 30 -111 -20 -67 -56 8 -7 15 -9 15 -4 0 4 5 3 10 -2 7 -7
6 -20 -5 -40 -8 -16 -15 -37 -15 -47 0 -21 -20 -57 -39 -73 -9 -7 -11 -16 -6
-25 5 -7 12 -52 16 -99 5 -47 11 -104 14 -127 5 -34 1 -54 -19 -97 -14 -30
-26 -64 -26 -75 0 -12 -13 -40 -30 -63 -16 -22 -30 -49 -30 -58 0 -10 -8 -20
-17 -22 -11 -3 -25 -27 -37 -61 -19 -57 -32 -67 -53 -46 -9 9 -19 9 -41 0 -16
-7 -35 -11 -42 -9 -8 2 -16 -8 -19 -25 -5 -22 -18 -35 -60 -58 -36 -18 -63
-26 -78 -23 -13 4 -23 2 -23 -4 0 -11 -33 -21 -94 -26 -21 -2 -42 -10 -47 -17
-7 -12 -20 -10 -76 9 -73 25 -378 145 -428 168 -63 29 -350 143 -599 239 -54
21 -122 54 -150 73 -28 20 -85 58 -126 85 -41 28 -106 74 -145 102 -38 28
-203 148 -365 265 -454 329 -514 375 -526 401 -23 49 -54 135 -54 149 0 25
-13 37 -46 44 -29 6 -33 4 -43 -25 -12 -34 -12 -34 -92 -3 -59 22 -96 9 -135
-47 -15 -21 -30 -39 -33 -39 -4 0 -8 -16 -9 -36 -4 -58 33 -103 123 -150 109
-58 224 -142 473 -349 54 -44 149 -119 212 -166 63 -47 121 -94 129 -103 14
-17 10 -17 -65 -13 -43 2 -92 8 -107 12 -19 5 -33 3 -45 -7 -20 -18 -63 -28
-157 -35 -101 -7 -268 -56 -306 -89 -8 -8 -19 -14 -24 -14 -16 0 -145 -113
-159 -139 -68 -127 -80 -208 -47 -316 12 -38 25 -76 27 -82 3 -7 1 -13 -5 -13
-20 0 -130 -90 -198 -162 -38 -39 -78 -81 -90 -93 -13 -12 -23 -27 -23 -32 0
-5 -9 -18 -20 -28 -11 -10 -20 -25 -20 -34 0 -9 -7 -26 -15 -38 -38 -54 -58
-231 -42 -365 6 -50 5 -68 -4 -68 -6 0 -9 -8 -6 -20 3 -11 1 -23 -5 -26 -5 -3
-7 -17 -4 -29 3 -13 1 -27 -5 -30 -6 -4 -8 -13 -5 -21 3 -7 -3 -18 -12 -23
-15 -9 -15 -10 3 -11 19 -1 18 -2 -4 -21 -14 -11 -26 -28 -27 -37 -4 -24 -9
-43 -22 -73 -6 -15 -14 -43 -17 -63 -4 -20 -11 -39 -16 -42 -5 -3 -9 -16 -9
-29 0 -13 -5 -27 -10 -30 -6 -4 -10 -12 -9 -18 4 -29 -14 -77 -30 -77 -12 0
-13 -2 -3 -8 13 -9 6 -68 -9 -78 -5 -3 -6 -23 -3 -44 5 -31 3 -41 -10 -46 -9
-3 -16 -15 -16 -27 0 -11 -6 -28 -14 -36 -24 -28 -146 -213 -146 -221 0 -5
-15 -28 -33 -52 -32 -43 -117 -226 -117 -254 0 -8 -4 -22 -10 -32 -10 -19 -48
-120 -73 -197 -8 -27 -25 -99 -36 -160 -12 -60 -26 -126 -32 -145 -5 -19 -12
-44 -14 -55 -3 -11 -19 -72 -35 -135 -17 -63 -35 -133 -41 -155 -5 -22 -14
-49 -19 -60 -13 -28 -60 -215 -60 -240 0 -12 -3 -25 -7 -29 -4 -3 -8 -25 -10
-49 -2 -23 -5 -58 -8 -77 -3 -19 -8 -91 -10 -159 l-5 -124 -51 -44 c-28 -24
-56 -43 -62 -43 -22 0 -115 -89 -143 -137 -15 -27 -31 -51 -37 -54 -5 -4 -14
-16 -20 -27 -7 -11 -37 -54 -69 -94 -104 -136 -180 -269 -241 -418 -76 -190
-97 -269 -97 -373 0 -48 -5 -88 -11 -94 -18 -18 -1 -80 31 -117 17 -19 30 -39
30 -45 0 -6 11 -8 29 -5 16 4 32 1 35 -5 4 -6 18 -11 30 -11 28 0 92 -25 101
-40 3 -5 17 -10 30 -10 15 0 26 -7 30 -20 3 -11 12 -20 18 -20 7 0 38 -18 71
-40 62 -43 86 -49 86 -25 0 8 5 15 11 15 5 0 7 -4 4 -10 -3 -5 1 -10 10 -10
11 0 15 -7 13 -22 -2 -15 2 -23 12 -23 8 0 29 -14 46 -32 30 -31 43 -36 109
-46 35 -6 65 7 65 28 0 8 4 15 9 15 6 0 13 -21 16 -47 3 -27 10 -56 16 -65 5
-10 9 -25 9 -33 0 -9 7 -26 15 -39 20 -31 27 -84 15 -121 -9 -29 -13 -59 -25
-220 -3 -38 -8 -81 -11 -95 -3 -14 -8 -61 -10 -105 -2 -44 -9 -109 -15 -145
-5 -36 -11 -76 -13 -90 -13 -108 -51 -298 -62 -311 -10 -11 -11 -18 -3 -26 8
-8 8 -29 3 -65 -5 -29 -7 -60 -6 -68 1 -8 5 -154 8 -325 3 -170 10 -314 15
-320 5 -5 9 -19 9 -31 0 -13 5 -26 11 -30 6 -3 8 -15 6 -26 -4 -14 0 -22 14
-25 10 -3 19 -9 19 -14 0 -5 7 -9 15 -9 8 0 15 -7 15 -16 0 -10 6 -14 14 -11
25 10 186 -45 186 -63 0 -4 18 -12 40 -19 21 -6 42 -16 45 -21 10 -17 72 -39
93 -33 24 6 47 -41 56 -114 3 -29 10 -74 16 -100 5 -26 11 -70 14 -98 2 -27
11 -63 20 -80 12 -22 12 -31 3 -37 -9 -6 -9 -10 1 -20 6 -6 12 -26 12 -43 0
-33 32 -128 50 -150 12 -14 8 -37 -16 -90 -7 -16 -38 -88 -69 -160 -92 -210
-241 -553 -283 -650 -22 -49 -51 -127 -66 -173 -15 -45 -43 -114 -62 -154 -34
-68 -134 -310 -134 -322 0 -3 -11 -29 -24 -58 -13 -29 -40 -93 -61 -143 -20
-49 -45 -108 -55 -130 -10 -22 -30 -69 -45 -105 -15 -36 -39 -92 -55 -125 -28
-61 -100 -240 -100 -251 0 -3 -13 -24 -29 -47 -15 -23 -61 -105 -100 -182 -40
-77 -84 -158 -97 -180 -14 -22 -33 -58 -43 -80 -10 -22 -43 -92 -74 -155 -133
-277 -197 -412 -197 -416 0 -2 -12 -29 -26 -61 -14 -32 -32 -71 -39 -88 -18
-40 -94 -202 -138 -295 -19 -41 -45 -97 -57 -125 -31 -70 -67 -149 -102 -225
-17 -36 -38 -85 -48 -110 -10 -25 -41 -94 -70 -155 -28 -60 -55 -119 -60 -130
-5 -11 -25 -55 -45 -98 -19 -43 -35 -80 -35 -81 0 -2 -25 -56 -55 -120 -30
-64 -55 -118 -55 -122 0 -3 -13 -33 -29 -67 -29 -62 -82 -182 -117 -267 -11
-24 -47 -99 -80 -166 -34 -66 -65 -132 -69 -145 -17 -57 -149 -388 -171 -430
-13 -26 -24 -52 -24 -58 0 -7 -10 -33 -21 -59 -12 -26 -32 -72 -46 -102 -14
-30 -37 -82 -53 -115 -67 -142 -124 -264 -150 -320 -15 -33 -47 -100 -70 -150
-23 -49 -58 -128 -76 -175 -19 -47 -39 -94 -44 -105 -30 -69 -95 -238 -107
-278 -8 -27 -23 -65 -34 -84 -11 -20 -31 -64 -44 -100 -22 -56 -34 -85 -66
-158 -5 -11 -24 -63 -43 -115 -19 -52 -46 -122 -59 -155 -23 -57 -32 -78 -63
-150 -7 -16 -40 -104 -75 -195 -34 -91 -70 -183 -79 -205 -16 -36 -81 -209
-162 -430 -17 -44 -48 -129 -70 -190 -23 -60 -57 -157 -78 -215 -20 -58 -42
-118 -49 -135 -7 -16 -15 -42 -18 -58 -3 -15 -10 -30 -14 -33 -5 -3 -9 -14 -9
-25 0 -10 -4 -19 -8 -19 -5 0 -14 -19 -21 -42 -7 -24 -21 -59 -32 -78 -10 -19
-30 -64 -43 -100 -14 -36 -34 -89 -45 -117 l-21 -53 6818 1 6817 0 -50 23
c-27 13 -79 37 -115 53 -133 62 -159 73 -169 73 -22 0 -40 48 -48 130 -4 47
-7 92 -6 100 1 8 -2 51 -8 95 -45 358 -52 434 -74 769 -8 125 -12 232 -9 237
3 5 1 17 -4 26 -12 23 -20 115 -36 423 -3 41 -9 154 -15 250 -6 96 -16 324
-21 505 -5 182 -14 350 -19 375 -11 46 -33 491 -26 498 2 3 40 -1 84 -8 108
-17 268 -5 391 27 52 14 138 29 190 33 87 7 104 11 201 59 58 29 128 70 155
92 79 63 124 90 142 87 10 -2 18 5 20 17 2 10 48 63 101 116 124 125 201 209
201 218 0 3 25 33 55 66 30 33 68 83 84 110 16 28 49 71 73 97 69 75 98 110
98 119 0 5 9 14 20 21 11 7 20 21 20 30 0 10 6 18 14 18 7 0 16 14 20 30 3 17
12 30 21 30 8 0 21 15 28 33 8 17 21 38 30 46 10 7 17 20 17 27 0 8 3 14 8 14
4 0 16 16 26 35 10 19 27 43 36 53 21 22 50 76 50 92 0 7 9 24 20 38 83 110
121 164 132 188 6 13 15 24 19 24 9 0 49 82 49 99 0 5 18 22 40 38 22 15 40
35 40 44 0 8 11 38 25 65 14 27 25 54 25 60 0 6 9 19 20 29 11 10 22 27 26 39
4 11 19 39 34 61 15 22 30 48 33 58 4 9 12 16 19 15 8 -2 14 9 16 27 2 16 12
41 23 56 10 15 19 39 19 53 0 15 8 30 20 36 11 6 23 22 26 35 3 14 13 25 21
25 11 0 14 7 10 22 -4 13 4 41 20 72 15 28 33 65 41 81 8 17 23 39 34 51 10
11 15 24 11 28 -5 4 -1 13 8 19 9 7 26 32 38 57 36 75 52 100 62 100 5 0 9 18
9 40 0 22 5 40 10 40 6 0 10 9 10 19 0 10 7 22 16 25 9 3 14 13 11 21 -3 7 4
33 15 57 36 73 38 77 38 92 0 7 9 25 20 39 11 14 20 35 20 46 0 12 6 21 15 21
9 0 18 12 21 30 8 36 15 42 84 70 104 42 145 63 191 102 26 21 49 38 53 38 3
0 36 18 73 41 111 68 319 239 470 386 30 29 59 53 64 53 14 0 82 55 191 153
66 59 90 89 100 120 10 33 19 42 45 49 19 5 51 30 81 63 28 30 58 55 67 55 28
0 135 111 167 173 16 32 32 84 36 115 7 54 9 57 34 57 32 1 90 52 119 105 11
19 40 64 65 100 42 59 46 68 40 107 -5 40 -4 43 19 43 33 0 67 39 159 186 76
121 79 126 68 160 -14 47 -6 64 29 64 16 0 38 9 49 20 20 20 113 197 158 298
l23 53 -21 34 c-29 47 -15 83 36 87 30 2 41 9 54 33 18 34 108 255 121 299 8
29 -1 57 -28 84 -33 33 -9 74 48 81 41 6 43 8 62 61 24 69 73 244 81 288 5 29
1 38 -29 65 -34 31 -35 34 -24 67 15 45 12 42 56 49 42 7 55 25 73 106 7 28
18 71 26 96 9 26 14 68 12 95 -3 41 -7 50 -33 64 -24 14 -29 22 -27 45 7 56
20 75 49 75 16 0 34 4 42 9 19 12 41 84 41 134 0 43 17 123 30 149 6 11 6 19
0 23 -6 3 -10 16 -10 28 0 14 -11 28 -30 39 -31 18 -32 21 -14 88 2 8 17 21
33 28 18 8 34 26 41 45 14 36 31 202 34 322 2 76 39 235 68 290 18 32 118 133
179 180 77 60 137 95 344 198 224 112 301 164 415 277 49 50 93 90 98 90 12 0
106 100 122 130 8 14 16 41 20 60 3 19 10 35 15 35 32 1 56 34 100 132 32 72
50 126 53 163 4 42 11 60 32 81 17 18 34 54 49 106 12 43 27 87 33 97 5 11 12
56 15 100 3 49 11 87 20 97 21 25 53 115 53 152 0 17 7 55 16 82 31 102 31
101 20 183 -7 56 -6 66 12 85 47 52 73 378 37 464 -21 49 -19 73 8 101 21 22
22 32 24 195 1 124 -3 183 -13 213 -9 26 -12 59 -8 90 10 73 4 374 -7 410 -5
18 -12 99 -15 180 -5 172 -6 178 -34 344 -12 69 -24 141 -26 160 -9 93 -59
280 -76 288 -5 2 -8 14 -8 27 0 27 -26 51 -51 47 -14 -2 -28 19 -63 90 -85
174 -266 336 -436 388 -25 7 -51 18 -57 23 -7 5 -61 12 -121 15 -116 5 -149
-4 -230 -65 -18 -13 -81 -40 -140 -60 -59 -19 -145 -54 -192 -77 -244 -121
-552 -283 -605 -319 -165 -111 -363 -286 -460 -407 -58 -72 -169 -146 -455
-301 l-65 -35 -125 9 c-69 5 -126 10 -128 12 -2 2 23 44 56 93 33 49 67 105
76 125 17 41 50 51 59 17 3 -11 10 -20 16 -20 16 0 14 15 -4 30 -14 12 -14 15
1 31 12 14 31 19 66 19 51 0 62 12 28 30 -24 13 -18 30 11 30 32 0 21 18 -18
29 -21 6 -44 11 -51 11 -7 0 -10 5 -7 10 3 6 24 10 46 10 21 0 39 5 39 10 0
14 -73 13 -104 -1 -20 -9 -29 -9 -40 0 -8 7 -24 10 -36 6 -11 -3 -20 -4 -20 0
0 11 110 193 119 197 12 5 -21 235 -40 269 -16 30 -39 111 -39 139 0 14 -7 33
-15 44 -8 10 -17 38 -21 62 -7 50 -21 65 -39 41 -18 -25 -25 -20 -15 12 10 37
-18 88 -55 97 -19 5 -114 -12 -115 -20 -4 -33 -35 -81 -69 -107 -36 -29 -49
-50 -86 -140 -72 -179 -117 -273 -225 -474 -20 -38 -59 -110 -85 -160 -26 -49
-66 -124 -89 -165 -22 -41 -52 -97 -66 -124 -30 -58 -33 -59 -129 -81 -41 -9
-106 -31 -145 -47 -39 -16 -110 -45 -157 -63 -176 -67 -358 -169 -447 -249
-20 -19 -66 -51 -102 -72 -152 -89 -265 -254 -304 -446 -20 -98 -21 -277 -1
-388 8 -47 15 -92 15 -100 0 -8 -26 -35 -57 -60 -227 -177 -551 -492 -709
-689 -133 -166 -235 -301 -258 -342 -86 -156 -109 -194 -118 -200 -6 -4 -29
-10 -52 -13 -58 -9 -213 -63 -261 -90 -23 -14 -65 -26 -100 -29 -33 -3 -71 -9
-85 -12 -25 -7 -25 -6 4 20 34 31 40 60 18 93 -12 18 -12 25 -2 38 7 8 19 13
26 10 19 -7 5 24 -23 53 -13 13 -23 21 -23 17 0 -3 -10 4 -22 16 -12 12 -22
36 -23 54 -2 34 -3 36 -66 107 -54 61 -42 81 22 37 53 -36 119 -42 119 -11 0
10 -7 21 -15 25 -11 4 -15 20 -15 55 0 41 4 52 21 62 37 20 79 22 85 5 3 -9
12 -16 19 -16 9 0 11 30 8 122 -1 67 -5 123 -7 125 -2 3 -15 -3 -28 -11 -26
-17 -40 -13 -31 10 3 9 -2 14 -15 14 -12 0 -24 5 -27 10 -7 11 18 40 34 40 5
0 13 5 16 10 4 7 -8 8 -34 4 -45 -7 -56 7 -20 27 16 8 18 14 9 22 -8 9 -14 8
-21 -5 -10 -18 -39 -25 -39 -10 0 4 -23 18 -51 32 -29 14 -58 35 -66 47 -8 12
-22 25 -32 28 -9 3 -33 21 -53 40 -47 46 -100 82 -149 102 -22 8 -39 21 -39
29 0 20 -21 17 -50 -6 -26 -21 -55 -26 -64 -11 -3 4 -36 9 -73 9 -115 1 -179
15 -207 45 -32 34 -56 35 -56 2 0 -22 -4 -25 -34 -25 -37 0 -46 15 -46 77 0
17 -4 35 -10 38 -5 3 -10 28 -10 55 0 38 -6 55 -27 81 -27 31 -27 33 -8 43 11
6 37 28 59 49 22 21 48 43 58 48 24 13 23 36 -1 44 -12 3 -21 17 -23 33 -5 40
-34 41 -42 1 -3 -18 -2 -37 4 -43 27 -27 3 -69 -59 -105 -22 -12 -26 -11 -43
9 -10 12 -23 40 -28 62 -13 45 -1 68 34 68 13 0 26 10 33 25 10 22 9 25 -7 25
-20 0 -90 -37 -103 -55 -20 -28 -17 -54 12 -100 38 -60 38 -70 4 -83 -40 -15
-145 -44 -148 -40 -2 3 -22 397 -30 623 -14 353 -48 847 -100 1445 -17 202
-19 346 -5 355 6 3 10 15 10 26 0 10 7 19 15 19 11 0 14 7 9 24 -4 15 5 47 26
91 17 37 29 73 26 80 -2 7 -2 16 2 20 8 7 12 54 15 157 1 36 5 69 8 72 3 3 0
47 -7 97 -10 69 -10 96 -1 110 9 15 7 23 -8 41 -34 39 -55 84 -62 135 -3 26
-13 54 -20 62 -11 10 -13 29 -7 80 4 36 11 76 15 89 12 31 11 249 -1 337 -5
39 -16 93 -24 120 -8 28 -20 86 -26 130 -6 44 -15 94 -20 110 -5 17 -32 190
-60 385 -28 195 -68 461 -90 590 -104 617 -118 778 -170 2009 l-10 234 40 59
c22 33 40 67 40 75 0 9 9 32 19 52 32 60 81 172 81 185 0 6 13 38 29 71 64
132 101 213 101 220 0 10 44 111 86 200 19 39 34 76 34 83 0 17 38 99 48 106
5 3 9 19 10 35 0 17 7 45 15 63 9 18 17 68 20 110 3 43 9 83 13 90 4 6 6 35 5
63 -2 39 2 57 15 70 17 16 17 18 1 27 -14 7 -16 19 -12 56 15 134 19 519 5
672 -4 52 -6 98 -4 102 2 3 -5 50 -16 105 -11 54 -20 111 -20 126 0 15 -9 40
-19 55 -10 15 -22 47 -25 71 -4 24 -16 55 -26 69 -11 13 -20 38 -20 54 0 17
-7 43 -15 59 -8 16 -22 42 -30 58 -8 16 -15 35 -15 43 0 8 -11 38 -25 66 -14
29 -25 56 -25 61 0 5 -15 37 -32 71 -37 68 -33 90 18 101 34 7 98 37 169 80
49 29 51 29 160 24 61 -3 124 -10 140 -15 75 -22 115 -29 186 -34 72 -4 94 -8
199 -37 25 -7 56 -13 70 -15 41 -5 203 -62 210 -74 3 -6 45 -24 93 -40 109
-37 183 -75 197 -99 5 -11 10 -32 10 -46 0 -15 8 -39 18 -53 10 -15 22 -35 25
-45 4 -10 11 -15 17 -12 5 3 10 1 10 -5 0 -6 4 -9 9 -5 5 3 13 -4 16 -16 5
-15 10 -18 17 -11 8 8 6 19 -6 36 -21 33 -22 53 -1 36 9 -7 19 -10 22 -6 4 4
1 11 -6 16 -9 5 -11 15 -7 26 7 17 10 16 32 -9 18 -21 23 -35 18 -50 -6 -19
-5 -20 10 -8 19 16 21 42 4 60 -11 11 -8 12 12 6 34 -9 342 -320 620 -625 17
-19 41 -53 52 -75 11 -22 47 -72 79 -111 32 -39 82 -107 110 -150 29 -43 56
-83 61 -89 42 -50 219 -294 350 -480 50 -71 114 -161 141 -200 62 -86 77 -122
77 -180 0 -28 4 -44 10 -40 6 4 10 -13 11 -42 l1 -48 10 35 c26 96 33 112 47
117 40 12 65 30 87 62 28 42 24 70 -21 126 -28 35 -69 92 -208 292 -21 29 -68
99 -107 155 -38 57 -92 135 -120 173 -27 39 -100 144 -161 234 -99 146 -110
168 -104 195 26 123 17 139 -76 140 l-60 1 -78 80 c-225 233 -571 622 -571
642 0 12 -6 26 -13 30 -6 4 -27 25 -45 46 -18 22 -61 61 -95 89 -34 27 -63 53
-65 59 -2 5 -8 9 -14 9 -6 0 -6 -6 2 -15 7 -8 9 -15 4 -15 -14 1 -40 23 -47
40 -4 12 -6 12 -6 1 -1 -14 44 -61 58 -61 4 0 18 -11 31 -25 19 -21 21 -25 7
-25 -19 0 -23 -15 -7 -25 22 -14 8 -23 -21 -15 -53 16 -112 48 -162 89 -52 44
-140 81 -190 81 -18 0 -70 12 -117 26 -47 14 -112 34 -145 44 -33 10 -93 29
-132 44 -40 14 -81 26 -90 26 -22 1 -53 23 -53 39 0 8 -5 9 -19 1 -11 -5 -33
-10 -50 -10 -31 0 -199 34 -367 75 -56 14 -111 25 -122 25 -35 0 -33 16 7 56
21 22 41 49 45 61 4 12 27 38 51 58 25 20 45 41 45 46 0 5 18 34 40 64 22 30
40 57 40 60 0 16 2 22 20 43 l19 22 63 -21 c35 -12 94 -37 131 -55 45 -23 93
-38 140 -44 40 -5 92 -13 117 -19 243 -50 309 -63 333 -67 15 -2 57 -10 93
-19 86 -20 163 -20 170 0 4 8 -7 41 -23 73 l-29 57 -120 21 c-233 42 -450 93
-509 119 -16 7 -43 17 -60 21 -16 4 -32 8 -35 9 -3 1 -24 5 -47 9 -24 4 -45
11 -48 15 -2 5 -25 14 -50 21 -54 15 -63 25 -35 40 12 6 20 19 18 28 -1 10 2
35 9 57 11 40 25 95 44 170 5 22 21 64 34 93 14 29 25 56 26 60 0 4 21 37 47
75 26 37 73 105 105 152 32 47 62 85 67 85 6 0 10 5 10 11 0 9 87 130 247 344
37 50 142 189 233 310 91 121 172 232 181 245 10 14 26 35 38 47 12 12 21 26
21 30 0 4 10 20 23 34 12 15 42 55 67 88 44 60 174 225 195 247 5 6 34 27 64
48 72 51 97 80 127 146 47 105 151 292 166 298 5 2 8 8 8 14 0 6 14 27 30 48
17 21 30 40 30 44 0 5 223 344 264 401 34 47 106 157 106 161 0 3 11 20 24 37
13 18 63 95 111 172 48 77 91 142 96 143 5 2 9 8 9 13 0 10 16 36 115 189 34
52 68 106 75 120 7 14 16 27 20 30 3 3 32 48 63 100 31 52 77 127 102 165 25
39 49 79 54 90 5 11 21 37 35 58 14 21 26 41 26 45 0 5 14 27 31 50 l31 42
-277 -2 -278 -3 -52 -85 c-28 -47 -87 -140 -131 -207 -43 -67 -108 -169 -144
-225 -36 -56 -84 -131 -107 -165 -24 -35 -43 -65 -43 -67 0 -5 -220 -333 -302
-451 -143 -204 -298 -410 -418 -558 -116 -142 -113 -138 -131 -186 -10 -28
-30 -60 -121 -195 -12 -17 -230 -305 -288 -379 -14 -18 -97 -122 -185 -232
-88 -110 -169 -212 -180 -226 -11 -15 -110 -139 -220 -275 -210 -262 -350
-424 -365 -424 -5 0 -7 14 -3 30 3 18 1 30 -5 30 -11 0 -22 -23 -22 -49 0 -10
-11 -28 -24 -40 l-24 -23 -17 26 c-21 32 -35 25 -35 -19 0 -38 -48 -109 -92
-134 -15 -9 -37 -28 -49 -44 -11 -15 -34 -34 -49 -42 -16 -8 -45 -36 -64 -63
-57 -77 -111 -142 -117 -142 -4 0 -17 8 -28 18 -21 16 -23 30 -31 197 -5 99
-12 356 -15 570 -7 471 -20 891 -41 1320 -16 321 -14 606 6 630 5 6 21 76 36
155 23 128 25 159 20 294 -6 168 -13 215 -51 361 -14 55 -37 159 -50 230 -13
72 -33 185 -46 253 l-23 122 -1341 0 -1341 0 -23 -157 c-13 -87 -31 -219 -42
-293 -21 -150 -35 -221 -72 -357 -18 -65 -27 -130 -32 -225 -4 -73 -8 -139
-11 -146 -4 -14 -118 57 -140 87 -10 13 -14 13 -28 2 -9 -8 -26 -11 -40 -7
-14 3 -27 2 -30 -2 -8 -14 -71 -7 -95 10 -25 18 -18 28 21 28 23 0 29 4 26 18
-3 13 -15 18 -62 20 -54 3 -59 5 -69 33 -12 31 -27 39 -27 14 0 -16 -51 -14
-140 6 -42 10 -441 209 -660 329 -52 28 -129 70 -170 92 -41 22 -103 56 -137
74 -126 68 -191 102 -318 169 -209 110 -287 155 -340 200 -75 63 -160 105
-213 105 -36 0 -43 -3 -40 -17z m-591 -2181 c-7 -2 -18 1 -23 6 -8 8 -4 9 13
5 13 -4 18 -8 10 -11z m1519 -2219 c-1 -96 -4 -133 -10 -121 -6 9 -8 47 -6 85
2 37 5 92 5 121 1 28 3 52 6 52 3 0 5 -62 5 -137z m15 -913 c3 -5 1 -10 -4
-10 -6 0 -11 5 -11 10 0 6 2 10 4 10 3 0 8 -4 11 -10z m-4 -128 c-9 -25 -9
-24 -10 18 0 36 2 41 10 27 7 -12 7 -27 0 -45z m4829 -225 c0 -7 10 -32 22
-57 41 -89 168 -447 168 -477 0 -12 4 -24 9 -27 11 -7 29 -133 36 -255 4 -52
8 -98 11 -103 3 -5 5 -124 4 -266 -1 -141 -2 -266 -2 -277 0 -11 -5 -92 -10
-180 -5 -88 -10 -171 -10 -185 0 -44 -62 -251 -98 -325 -10 -22 -44 -101 -75
-175 -31 -74 -74 -169 -95 -210 -21 -41 -48 -100 -60 -130 -27 -71 -89 -198
-100 -205 -24 -15 -31 851 -12 1511 10 360 11 373 35 430 32 75 81 220 102
304 22 81 26 418 7 464 -13 30 -7 50 8 27 7 -12 11 -11 25 2 15 16 15 18 0 34
-19 19 -16 83 5 108 13 16 30 11 30 -8z m-4839 -1124 c5 -103 12 -264 15 -358
4 -93 8 -213 10 -265 21 -494 21 -650 0 -650 -16 0 -62 -49 -69 -75 -3 -11
-22 -58 -42 -105 -26 -63 -40 -114 -51 -195 -8 -60 -19 -114 -24 -119 -13 -13
-13 2 0 178 17 238 18 248 29 361 11 121 33 346 36 385 1 14 6 79 11 145 4 66
9 131 10 145 19 216 26 298 39 480 8 118 15 228 15 244 0 16 3 27 6 23 3 -3
10 -90 15 -194z m1363 -2778 c-3 -25 -10 -45 -15 -45 -10 0 -12 64 -2 99 11
41 25 -3 17 -54z m-16 -58 c12 -14 -5 -486 -18 -501 -5 -4 -15 8 -25 27 -9 19
-27 39 -41 46 -17 8 -24 17 -20 27 3 9 6 27 6 40 0 15 6 24 15 24 17 0 19 12
5 26 -6 6 -6 22 0 43 5 19 7 38 3 44 -3 5 1 15 9 21 9 6 18 36 22 71 18 157
20 161 44 132z m-41 -799 c-3 -7 -5 -2 -5 12 0 14 2 19 5 13 2 -7 2 -19 0 -25z
m-137 -262 c-5 -25 -7 -52 -4 -60 3 -9 1 -16 -5 -16 -9 0 -9 74 -1 150 0 3 5
-3 10 -12 7 -11 7 -32 0 -62z m-16 -183 c-3 -54 -5 -105 -5 -113 3 -44 -1 -74
-12 -90 -11 -16 -13 -12 -15 28 -4 63 19 272 30 272 4 0 5 -44 2 -97z m126
-30 c0 -29 -12 -24 -17 7 -2 11 2 20 7 20 6 0 10 -12 10 -27z m-67 -610 c3 -5
-3 -80 -13 -168 -10 -88 -22 -200 -25 -250 -9 -119 -50 -248 -69 -217 -7 11
-8 311 -2 377 2 22 11 58 19 80 8 22 23 67 32 100 22 75 43 103 58 78z m-2576
-585 c32 -29 69 -63 83 -75 14 -13 30 -23 37 -23 7 0 13 -3 13 -8 0 -4 11 -19
25 -34 23 -24 32 -28 83 -26 45 1 73 -6 132 -32 97 -42 105 -49 83 -66 -10 -7
-31 -14 -46 -14 -15 0 -45 -10 -65 -21 -36 -21 -39 -21 -73 -5 -31 14 -338
321 -347 347 -9 22 21 5 75 -43z m-595 -1682 c-2 -16 -11 -40 -20 -54 l-16
-25 -8 31 c-11 40 6 85 30 80 12 -3 16 -12 14 -32z m10906 -1614 c4 -14 -20
-69 -52 -116 -24 -35 -26 -37 -27 -15 -2 42 2 114 6 129 5 17 67 19 73 2z
m-3563 -815 c8 -13 17 -48 20 -78 l4 -54 -47 51 c-26 28 -56 56 -67 62 -19 10
-18 12 15 26 48 21 57 20 75 -7z m43 -175 c3 -28 0 -32 -22 -32 -29 0 -31 5
-13 43 15 34 31 29 35 -11z m-21 -68 c-9 -9 -28 6 -21 18 4 6 10 6 17 -1 6 -6
8 -13 4 -17z m4291 -104 c2 -36 -6 -82 -22 -135 -28 -94 -83 -230 -100 -248
-6 -7 -18 -21 -26 -33 -8 -12 -29 -33 -47 -48 -27 -22 -36 -25 -53 -16 -11 6
-20 18 -20 26 0 12 -7 14 -27 10 -18 -3 -44 2 -72 17 -38 19 -47 30 -67 82
-13 33 -28 69 -33 80 -5 11 -16 40 -26 65 -9 25 -21 52 -25 61 -11 21 17 48
87 83 63 31 258 96 293 97 14 0 34 4 45 9 11 5 36 8 55 7 l35 -2 3 -55z
m-3998 -60 c0 -5 -5 -10 -11 -10 -5 0 -7 5 -4 10 3 6 8 10 11 10 2 0 4 -4 4
-10z m160 -6 c30 -9 66 -18 79 -21 14 -3 43 -19 67 -34 23 -16 46 -29 52 -29
9 0 22 -46 22 -81 0 -24 -29 -14 -40 15 -7 17 -9 18 -9 4 -1 -19 -16 -24 -25
-9 -4 5 0 11 6 14 10 4 10 7 0 18 -10 11 -16 9 -36 -14 -28 -33 -47 -34 -80
-4 -39 35 -51 44 -74 51 -11 4 -24 16 -27 27 -4 10 -13 19 -20 19 -21 0 -37
34 -23 48 16 16 42 15 108 -4z m-7742 -56 c15 -15 16 -84 2 -93 -6 -4 -8 -10
-5 -15 5 -9 -32 -243 -43 -270 -3 -8 -7 -26 -7 -40 -1 -14 -7 -59 -13 -100
-22 -146 -51 -346 -57 -395 -9 -70 -14 -85 -31 -85 -10 0 -14 14 -14 53 0 28
-5 138 -12 242 -9 150 -9 202 1 245 7 30 16 73 21 95 5 22 14 58 20 80 6 22
15 59 20 83 11 51 85 212 97 212 5 0 14 -5 21 -12z m7129 -84 c3 -8 1 -20 -5
-26 -9 -9 -8 -15 0 -25 6 -8 -7 -2 -30 13 -23 15 -42 34 -42 41 0 19 69 17 77
-3z m57 -48 c-3 -8 -1 -17 5 -21 15 -9 14 -28 -1 -23 -14 5 -22 58 -9 58 6 0
8 -6 5 -14z m-124 -22 c0 -8 -4 -14 -10 -14 -5 0 -10 9 -10 21 0 11 5 17 10
14 6 -3 10 -13 10 -21z m370 16 c0 -5 -4 -10 -10 -10 -5 0 -10 5 -10 10 0 6 5
10 10 10 6 0 10 -4 10 -10z m-22 -22 c17 -17 15 -63 -3 -78 -13 -11 -15 -8
-15 15 0 18 -6 28 -20 32 -16 4 -18 9 -9 24 11 22 30 24 47 7z m-228 -49 c0
-5 -7 -9 -15 -9 -8 0 -12 -6 -9 -14 3 -7 -2 -16 -11 -20 -19 -7 -38 1 -30 14
3 5 1 11 -5 15 -10 6 -14 -7 -11 -33 1 -7 -5 -15 -14 -18 -19 -8 -20 -40 0
-48 17 -6 19 -43 5 -82 -17 -43 -27 -17 -34 82 -7 103 -2 113 58 118 20 2 39
6 43 9 7 8 23 -1 23 -14z m330 -9 c0 -11 -7 -20 -15 -20 -9 0 -15 -9 -15 -21
0 -18 -3 -19 -15 -9 -12 10 -11 16 7 41 25 34 38 37 38 9z m70 -39 c0 -8 -60
-34 -66 -29 -2 3 3 19 12 37 15 31 17 31 35 15 10 -9 19 -20 19 -23z m513 -33
c15 3 18 -2 15 -25 -2 -22 -9 -29 -30 -31 -15 -2 -36 2 -47 8 -20 10 -20 11
-1 30 11 11 20 26 20 33 1 8 5 7 13 -3 7 -9 20 -14 30 -12z m-467 -115 c4 -29
3 -43 -5 -43 -6 0 -11 10 -11 23 0 13 -5 28 -11 34 -7 7 -9 19 -5 29 10 25 24
6 32 -43z m485 7 c5 0 9 6 9 14 0 15 48 28 56 15 3 -5 13 -9 23 -9 25 0 51
-32 50 -61 -1 -13 1 -36 5 -50 11 -38 -5 -42 -60 -14 -27 14 -54 25 -60 25
-17 0 -54 45 -63 78 -11 38 -1 51 18 23 7 -12 17 -21 22 -21z m-351 -18 c0 -4
-7 -16 -15 -26 -19 -25 -19 -45 1 -67 22 -24 3 -82 -31 -97 -14 -7 -25 -16
-25 -22 0 -5 -11 -10 -25 -10 -16 0 -25 -6 -25 -15 0 -8 -7 -15 -16 -15 -8 0
-13 -4 -10 -9 3 -4 -1 -17 -9 -27 -13 -18 -14 -18 -21 -1 -3 10 -2 23 5 30 6
6 11 19 11 29 0 11 7 18 20 18 11 0 20 7 20 15 0 7 8 18 17 23 14 9 15 14 3
41 -11 29 -14 30 -25 14 -18 -25 -25 -14 -16 27 6 29 12 35 31 35 38 0 50 13
50 55 l0 38 30 -14 c17 -9 30 -19 30 -22z m120 16 c11 -12 20 -26 20 -31 0 -5
8 -21 19 -35 30 -44 35 -71 14 -78 -10 -3 -28 -11 -40 -17 -13 -6 -25 -8 -28
-5 -10 9 6 37 25 43 10 3 20 15 23 26 5 17 2 19 -28 13 -30 -5 -35 -2 -59 32
-30 44 -32 56 -11 48 11 -5 13 -2 9 10 -9 25 31 20 56 -6z m400 18 c0 -3 -4
-8 -10 -11 -5 -3 -10 -1 -10 4 0 6 5 11 10 11 6 0 10 -2 10 -4z m-478 -101 c0
-5 -5 -11 -11 -13 -6 -2 -11 4 -11 13 0 9 5 15 11 13 6 -2 11 -8 11 -13z m38
-49 c0 -3 -5 -17 -10 -32 -10 -25 -12 -26 -27 -12 -20 20 -10 48 17 48 11 0
20 -2 20 -4z m143 -58 c32 -43 39 -64 42 -116 2 -49 -22 -74 -45 -47 -7 8 -18
15 -26 15 -23 0 -28 23 -8 39 29 26 27 39 -11 52 -32 12 -49 39 -25 39 5 0 12
11 16 25 8 34 28 31 57 -7z m-197 -3 c11 -11 12 -19 5 -32 -7 -12 -10 -14 -11
-4 0 11 -3 11 -15 1 -13 -10 -15 -9 -15 12 0 39 13 47 36 23z m67 -35 c-3 -12
-8 -19 -11 -16 -5 6 5 36 12 36 2 0 2 -9 -1 -20z m346 -14 c12 -18 21 -49 20
-67 0 -33 -1 -33 -18 16 -10 28 -21 58 -26 68 -12 29 2 19 24 -17z m-489 -5
c0 -5 -7 -17 -16 -26 -15 -15 -15 -17 4 -22 32 -8 33 -30 3 -59 -18 -17 -27
-33 -24 -45 6 -23 -23 -26 -49 -5 -28 21 -23 56 7 56 14 0 29 8 35 20 13 24
-2 27 -20 5 -19 -22 -35 -3 -21 24 7 12 17 18 26 15 9 -4 15 0 15 10 0 9 7 16
15 16 8 0 15 5 15 10 0 6 2 10 5 10 3 0 5 -4 5 -9z m160 -41 c0 -13 -7 -20
-20 -20 -16 0 -21 -9 -26 -50 -4 -27 -10 -50 -14 -50 -15 0 -19 14 -9 32 6 11
11 32 11 47 1 19 10 33 27 44 33 21 31 21 31 -3z m56 -9 c-12 -19 -24 -12 -19
10 4 13 9 17 15 11 6 -6 7 -15 4 -21z m-376 11 c0 -16 -32 -52 -46 -52 -20 0
-18 9 9 35 23 24 37 30 37 17z m25 -80 c0 -18 -20 -15 -23 4 -3 10 1 15 10 12
7 -3 13 -10 13 -16z m373 5 c14 -17 3 -32 -30 -40 -30 -8 -41 7 -26 36 10 20
41 23 56 4z m113 -60 c-16 -16 -32 4 -24 31 l6 23 14 -21 c11 -16 12 -25 4
-33z m-341 -12 c0 -14 -4 -25 -10 -25 -11 0 -14 33 -3 43 11 11 13 8 13 -18z
m160 -1 c0 -17 -43 -37 -49 -22 -4 13 30 49 40 42 5 -3 9 -12 9 -20z m40 12
c0 -3 -4 -8 -10 -11 -5 -3 -10 -1 -10 4 0 6 5 11 10 11 6 0 10 -2 10 -4z m124
-21 c21 -16 15 -45 -9 -45 -8 0 -15 -7 -15 -15 0 -12 -9 -9 -35 12 l-36 28 22
18 c25 20 47 21 73 2z m-279 -5 c3 -5 1 -10 -4 -10 -6 0 -11 5 -11 10 0 6 2
10 4 10 3 0 8 -4 11 -10z m72 -57 c-9 -9 -19 -14 -23 -11 -10 10 6 28 24 28
15 0 15 -1 -1 -17z m145 0 c16 -5 35 -40 26 -49 -10 -9 -69 29 -64 41 3 8 2
16 -2 18 -4 2 0 2 8 -1 8 -2 23 -6 32 -9z m-28 -52 c3 -5 22 -12 42 -16 35 -6
36 -7 16 -21 -45 -31 -67 -34 -97 -10 -19 15 -26 28 -22 39 7 18 52 24 61 8z
m2666 -92 c0 -9 6 -19 13 -22 8 -3 37 -45 66 -94 30 -48 73 -117 97 -152 42
-63 43 -66 28 -90 -25 -37 -67 -70 -89 -71 -14 0 -25 -10 -32 -30 -7 -19 -18
-30 -30 -30 -24 0 -130 54 -158 80 -12 11 -24 20 -28 20 -6 0 -91 56 -124 82
-15 12 -1 43 58 130 22 32 39 60 39 62 0 3 10 20 23 39 12 19 38 59 57 90 l35
57 22 -27 c13 -16 23 -35 23 -44z m-2566 4 c4 -10 1 -22 -7 -28 -7 -5 -14 -17
-14 -25 0 -22 -33 -70 -48 -70 -14 0 -31 35 -41 85 l-7 38 35 -7 c26 -5 39 -2
48 9 16 20 26 19 34 -2z m-119 -53 c3 -5 -1 -10 -10 -10 -13 0 -16 -8 -13 -37
2 -29 7 -37 20 -35 9 1 20 -2 23 -8 11 -18 -1 -23 -25 -10 -29 16 -37 5 -15
-20 10 -11 16 -20 14 -21 -56 -11 -74 0 -89 50 -8 27 -5 35 19 60 37 38 65 49
76 31z m-125 -4 c0 -3 -4 -8 -10 -11 -5 -3 -10 -1 -10 4 0 6 5 11 10 11 6 0
10 -2 10 -4z m-94 -61 c4 -8 10 -12 15 -9 5 3 9 0 9 -5 0 -6 -9 -11 -20 -11
-11 0 -20 2 -20 4 0 2 -3 11 -6 20 -3 9 -1 16 5 16 7 0 14 -7 17 -15z m111
-55 c3 -17 10 -33 14 -36 21 -13 8 -35 -18 -32 -21 2 -28 -2 -33 -22 l-7 -25
-7 30 c-4 17 -9 38 -11 47 -3 19 30 68 46 68 5 0 12 -14 16 -30z m-447 1 c0
-13 -29 -35 -37 -28 -7 8 15 37 28 37 5 0 9 -4 9 -9z m149 -2 c6 9 14 10 27 3
11 -5 24 -7 30 -5 6 2 15 -4 18 -14 4 -9 4 -14 0 -11 -3 4 -15 -3 -25 -15
l-19 -22 3 25 c3 35 -20 32 -41 -5 -9 -16 -21 -33 -27 -37 -10 -8 0 -12 19 -9
5 1 6 -6 2 -16 -4 -11 1 -9 14 7 23 29 26 17 6 -22 -9 -18 -11 -30 -5 -34 6
-3 8 -12 5 -20 -3 -7 0 -16 5 -20 14 -8 -28 -37 -45 -31 -8 3 -19 0 -26 -6
-10 -10 -12 -7 -7 11 3 12 1 22 -3 22 -14 0 -5 88 11 107 28 36 42 67 31 71
-6 2 -8 10 -5 18 5 13 7 13 14 2 8 -11 10 -11 18 1z m-207 -21 c-7 -7 -12 -8
-12 -2 0 14 12 26 19 19 2 -3 -1 -11 -7 -17z m148 3 c0 -6 -4 -13 -10 -16 -5
-3 -10 1 -10 9 0 9 5 16 10 16 6 0 10 -4 10 -9z m-146 -65 c-18 -38 -34 -47
-34 -20 0 8 -5 12 -11 8 -7 -4 -10 1 -7 12 2 11 11 19 20 19 10 0 23 6 29 12
20 20 21 8 3 -31z m586 34 c0 -5 -7 -10 -16 -10 -8 0 -12 5 -9 10 3 6 10 10
16 10 5 0 9 -4 9 -10z m-480 -31 c0 -6 -9 -8 -20 -4 -16 5 -23 0 -35 -29 -15
-35 -35 -56 -35 -36 0 6 12 31 26 56 22 38 28 42 45 34 10 -6 19 -15 19 -21z
m182 19 c-18 -18 -14 -30 7 -23 15 4 19 1 17 -12 -3 -19 -26 -31 -26 -13 0 10
-3 10 -14 1 -11 -9 -16 -9 -22 0 -4 7 -3 14 4 17 6 2 8 10 5 19 -4 10 -2 14 5
9 6 -3 13 -2 17 4 3 5 9 10 13 10 3 0 1 -5 -6 -12z m-9728 -13 c-4 -8 -8 -15
-10 -15 -2 0 -4 7 -4 15 0 8 4 15 10 15 5 0 7 -7 4 -15z m9865 -62 c1 -7 -8
-13 -19 -13 -23 0 -25 12 -8 40 12 18 13 19 20 2 3 -9 7 -23 7 -29z m-319 -5
c0 -9 -4 -19 -9 -22 -4 -3 -6 -18 -3 -33 5 -25 4 -27 -11 -14 -10 7 -17 10
-17 6 0 -5 -2 -6 -5 -3 -3 3 0 18 7 32 9 22 9 29 0 35 -7 4 -10 15 -6 24 5 13
9 14 25 4 10 -6 19 -19 19 -29z m-9205 -372 c1 -10 9 -24 17 -30 20 -15 30
-66 12 -66 -8 0 -14 10 -14 24 0 13 -8 30 -19 37 -11 8 -21 32 -25 59 -7 45
-7 45 11 20 9 -13 18 -33 18 -44z m9895 -33 c0 -20 -9 -34 -33 -50 -43 -30
-45 -29 -43 8 4 56 76 95 76 42z m-9757 -49 c7 -44 3 -56 -32 -82 -28 -20 -29
-20 -24 -2 3 12 -1 22 -11 26 -9 3 -14 10 -11 15 3 4 13 5 21 2 20 -7 34 13
34 50 0 39 16 33 23 -9z m8925 -11 c2 -12 10 -24 18 -27 12 -4 12 -2 4 14 -6
11 -9 20 -8 21 2 1 17 2 35 4 32 3 32 2 18 -24 -30 -56 -31 -56 -60 -32 -30
23 -45 27 -45 10 0 -5 5 -7 12 -3 8 5 9 0 5 -15 -4 -18 -3 -20 8 -11 12 10 14
4 12 -29 0 -22 -4 -36 -8 -30 -4 6 -14 0 -27 -15 -19 -25 -40 -37 -27 -16 3 6
2 10 -2 10 -5 0 -15 -16 -22 -35 -7 -19 -19 -35 -27 -35 -13 0 -19 13 -14 35
7 31 4 75 -5 78 -7 3 -6 14 1 33 8 21 8 35 0 47 -8 12 -7 20 2 29 9 9 12 8 12
-5 0 -9 5 -17 10 -17 6 0 10 7 10 16 0 10 6 14 15 11 8 -4 16 -3 19 1 3 5 17
8 33 7 21 0 29 -5 31 -22z m3139 -163 c54 -24 55 -38 6 -127 -66 -123 -63
-120 -151 -128 -42 -4 -111 -13 -152 -20 -41 -7 -79 -11 -85 -9 -5 2 -34 50
-62 106 l-53 102 32 33 c36 37 72 49 168 58 35 4 67 9 70 11 12 12 186 -8 227
-26z m-12203 -15 c-9 -14 -19 -23 -22 -20 -5 4 26 45 35 45 2 0 -4 -11 -13
-25z m-48 -100 c-11 -26 -13 -43 -6 -61 6 -14 10 -36 10 -49 0 -13 10 -36 23
-52 12 -15 28 -38 35 -51 6 -12 18 -32 25 -44 6 -13 24 -38 40 -56 15 -18 27
-39 27 -47 0 -9 4 -23 9 -33 25 -48 39 -87 33 -96 -3 -6 -7 -5 -10 3 -3 8 -13
22 -23 32 -10 10 -25 34 -33 54 -15 35 -30 38 -63 12 -10 -7 -13 -4 -13 11 0
12 5 24 10 27 19 12 11 45 -10 45 -22 0 -25 6 -34 61 -4 19 -14 44 -24 55 -23
24 -43 101 -36 139 6 33 34 85 46 85 5 0 2 -16 -6 -35z m71 -517 c-3 -8 -6 -5
-6 6 -1 11 2 17 5 13 3 -3 4 -12 1 -19z m23 -213 c0 -8 -6 -12 -14 -9 -8 3
-12 12 -9 20 6 17 23 9 23 -11z m10105 -334 c20 -120 25 -112 -80 -137 -38 -9
-77 -21 -85 -25 -49 -27 -180 -72 -188 -65 -9 9 57 73 89 87 28 11 40 29 20
29 -24 0 -22 41 3 71 14 17 26 39 26 49 0 24 66 70 99 70 13 0 33 -7 43 -17
10 -9 18 -11 18 -5 0 24 21 65 29 56 4 -5 16 -56 26 -113z m-9095 -2066 c7 -8
23 -15 36 -15 12 0 35 -10 50 -23 l27 -23 -25 -80 c-14 -43 -33 -106 -41 -139
-9 -33 -25 -98 -37 -145 -13 -47 -26 -108 -31 -137 -5 -29 -14 -65 -20 -80 -6
-15 -15 -48 -19 -73 -5 -25 -14 -65 -20 -90 -6 -25 -14 -61 -17 -80 -3 -19
-10 -40 -15 -47 -5 -6 -11 -33 -13 -59 -2 -26 -9 -52 -14 -57 -6 -6 -11 -20
-11 -31 0 -21 -22 -98 -80 -281 -81 -253 -100 -317 -100 -334 0 -9 -4 -21 -9
-27 -11 -12 -81 -228 -81 -252 0 -10 -3 -22 -7 -26 -4 -4 -15 -49 -24 -99 -9
-51 -29 -137 -44 -192 -15 -55 -31 -122 -36 -150 -4 -27 -15 -68 -23 -90 -8
-22 -17 -60 -20 -85 -2 -25 -13 -70 -24 -100 -11 -30 -27 -86 -36 -125 -10
-38 -21 -83 -26 -100 -4 -16 -25 -93 -45 -170 -20 -77 -39 -144 -43 -149 -5
-8 -17 -58 -42 -171 -5 -22 -18 -69 -30 -105 -12 -36 -23 -78 -26 -95 -2 -16
-7 -37 -11 -45 -3 -8 -8 -24 -9 -35 -1 -11 -10 -45 -19 -75 -9 -30 -18 -64
-19 -75 -2 -11 -11 -42 -20 -69 -9 -27 -18 -61 -20 -75 -8 -60 -49 -247 -56
-256 -4 -5 -7 -17 -7 -25 -1 -13 -10 -70 -28 -165 -3 -16 -10 -55 -15 -85 -6
-30 -15 -71 -19 -90 -14 -52 -30 -157 -36 -225 -3 -33 -10 -76 -16 -95 -6 -19
-17 -69 -26 -110 -22 -109 -41 -208 -52 -269 -6 -29 -12 -55 -14 -57 -5 -6
-77 19 -77 27 0 7 -93 24 -98 17 -1 -1 -9 11 -18 27 -16 31 -16 23 1 350 5
101 16 186 61 485 9 58 19 140 23 183 5 56 14 86 30 107 12 17 16 30 10 30
-15 0 -4 191 12 221 6 11 12 48 14 82 16 294 20 327 38 338 6 5 6 17 -1 36
-13 39 -5 176 13 219 7 18 14 50 13 71 0 21 9 66 21 100 12 34 21 72 21 83 0
11 3 20 8 20 9 0 32 72 32 100 0 20 4 29 28 77 7 13 12 30 12 38 0 19 42 153
76 245 13 36 24 80 24 97 0 18 4 34 8 37 5 3 15 38 22 78 7 40 19 82 27 93 7
11 13 30 13 43 0 12 6 33 14 45 7 12 14 39 15 61 0 21 6 45 12 52 11 14 41
158 40 197 0 9 4 15 10 12 5 -4 9 3 9 14 0 11 5 23 10 26 6 3 10 16 10 28 0
12 9 33 20 47 11 14 20 34 20 45 0 12 9 39 20 60 11 22 21 51 22 65 1 14 15
38 30 53 15 16 28 35 28 43 0 8 6 14 14 14 9 0 12 8 9 24 -4 17 2 30 18 43 42
34 109 103 109 113 0 6 -9 10 -20 10 -15 0 -20 7 -20 29 0 17 5 33 10 36 7 4
8 24 4 51 -4 32 -3 44 6 44 7 0 10 7 6 15 -3 8 2 31 11 52 9 21 17 40 18 43 1
3 4 12 8 20 3 8 8 27 11 43 4 15 13 27 21 27 12 0 12 -5 4 -27 -22 -57 -27
-162 -11 -218 8 -26 10 -27 15 -10 3 11 11 64 17 118 10 97 35 177 55 177 6 0
12 23 13 52 1 36 13 74 37 123 19 38 35 83 35 98 0 15 6 30 14 33 8 3 12 13 9
25 -3 10 0 19 6 19 6 0 10 10 9 23 -1 12 10 47 25 77 14 30 31 66 36 80 6 14
15 32 20 40 22 38 34 72 36 102 2 38 9 55 48 121 30 49 46 57 67 32z m9710
-2274 c30 -13 66 -32 79 -44 22 -21 23 -27 17 -97 -10 -112 -23 -142 -99 -238
-73 -91 -265 -312 -282 -324 -8 -6 -117 79 -157 125 -37 40 -41 90 -18 231 43
271 49 290 111 357 61 66 76 69 192 39 56 -15 127 -37 157 -49z m-11803 -593
c-3 -8 -6 -5 -6 6 -1 11 2 17 5 13 3 -3 4 -12 1 -19z m-440 -1070 c-3 -8 -6
-5 -6 6 -1 11 2 17 5 13 3 -3 4 -12 1 -19z m-7 -32 c0 -3 -4 -8 -10 -11 -5 -3
-10 -1 -10 4 0 6 5 11 10 11 6 0 10 -2 10 -4z m-72 -180 c-6 -14 -17 -27 -24
-30 -18 -7 -18 -1 2 29 21 32 37 32 22 1z m-154 -364 c-4 -15 -13 -34 -20 -43
-8 -8 -14 -20 -14 -26 0 -6 -7 -16 -15 -23 -19 -16 -19 -7 0 29 8 16 11 31 8
35 -4 3 3 15 15 27 13 11 19 25 16 31 -4 7 -2 8 4 4 7 -4 10 -18 6 -34z m-69
-154 c0 -18 -7 -46 -14 -63 -7 -16 -14 -37 -15 -44 -4 -21 -25 -25 -32 -6 -4
9 5 38 20 66 14 28 26 57 26 65 0 8 4 14 9 14 4 0 7 -15 6 -32z m-95 -224 c0
-8 5 -14 10 -14 6 0 5 -8 -2 -20 -19 -31 -28 -24 -28 21 0 24 4 38 10 34 6 -3
10 -13 10 -21z m28 1 c-3 -3 -9 2 -12 12 -6 14 -5 15 5 6 7 -7 10 -15 7 -18z
m-42 -100 c-7 -27 -26 -35 -26 -10 0 8 5 15 10 15 6 0 10 8 10 17 0 9 3 14 6
10 4 -3 4 -18 0 -32z m-45 -58 c-17 -17 -24 -1 -10 25 12 21 14 21 17 4 2 -10
-1 -23 -7 -29z m-26 -76 c-5 -24 -25 -64 -30 -59 -7 6 18 78 26 78 4 0 6 -9 4
-19z m-52 -134 c-6 -38 -19 -48 -29 -22 -6 14 23 71 31 63 3 -2 2 -21 -2 -41z
m-33 -57 c0 -5 -2 -10 -4 -10 -3 0 -8 5 -11 10 -3 6 -1 10 4 10 6 0 11 -4 11
-10z m512 -49 c-16 -36 -18 -38 -25 -18 -6 15 -3 25 7 33 9 6 16 17 16 23 0 7
4 10 9 6 5 -3 2 -22 -7 -44z m-557 -51 c-4 -12 -9 -19 -12 -17 -3 3 -2 15 2
27 4 12 9 19 12 17 3 -3 2 -15 -2 -27z m-5 -39 c0 -5 -7 -22 -15 -37 -13 -26
-15 -26 -15 -7 0 12 3 28 6 37 7 17 24 22 24 7z m524 -12 c-6 -11 -24 -2 -24
11 0 5 7 7 15 4 8 -4 12 -10 9 -15z m-574 -114 c-19 -37 -20 -38 -20 -12 0 15
4 27 9 27 5 0 13 10 17 23 4 12 9 17 11 12 2 -6 -6 -28 -17 -50z"/>


</g>
</svg>
